<?xml version="1.0" encoding="utf-8"?>
<!-- Generator: Adobe Illustrator 23.0.2, SVG Export Plug-In . SVG Version: 6.00 Build 0)  -->
<svg version="1.1" id="b3eb9a67-8d35-4413-b29d-d464657b13c9"
	 xmlns="http://www.w3.org/2000/svg" xmlns:xlink="http://www.w3.org/1999/xlink" x="0px" y="0px" viewBox="0 0 1161.1 729.4"
	 style="enable-background:new 0 0 1161.1 729.4;" xml:space="preserve">
<style type="text/css">
	.st0{fill:#2196F3;}
	.st1{fill:url(#SVGID_1_);}
	.st2{opacity:0.1;}
	.st3{fill:#3F3D56;}
	.st4{opacity:0.1;enable-background:new    ;}
	.st5{opacity:0.2;fill:#2196F3;enable-background:new    ;}
	.st6{fill:none;}
	.st7{fill:none;stroke:#3F3D56;stroke-width:2;stroke-miterlimit:10;}
	.st8{fill:#FBBEBE;}
	.st9{opacity:0.2;fill:#FFFFFF;enable-background:new    ;}
	.st10{opacity:0.2;enable-background:new    ;}
	.st11{fill:#FFFFFF;}
</style>
<title>before dawn</title>
<path class="st0" d="M1079.7,477.6c-11.7,30.7-10.6,64.8,3.3,94.6c0.8,1.8,1.7,3.6,2.6,5.3c10.8,21.2,25.9,43.3,17.8,65.1
	c-6.3,17-24.6,25.9-41.5,32.6c-65.4,25.9-134,42.5-204,49.4c-51.6,5.1-103.6,4.8-155.4,4.6c-112.2-0.5-224.4-1.1-336.2-10
	c-51.1-4-102.4-9.9-151.6-24.4c-67.5-20-129.3-55.8-180.2-104.4c-1.8-1.7-3.6-3.5-5.4-5.3c-10.7-10.8-20.5-22.8-25.4-37.1
	c-9.8-28.7,2-60.2,17.1-86.4s34.1-51.3,40.2-81C70,337,49.7,293.3,34.1,251.5s-25.8-92.1,0-128.5c12.6-17.8,32-29.4,51.5-39
	c57.7-28.3,120.9-43.7,185.1-45.1c37.5-0.8,76.2,3,111.2-10.3c19.7-7.5,37.4-20.2,57.9-25.3c34.6-8.5,70.5,6.5,101.6,24
	c17.9,10.1,35.3,21.1,54,29.7c13.6,6.3,29.2,13.3,43.7,17.2c14.2,3.8,28.8-3.8,41.2-10.1c27-13.6,52.4-33.9,83.4-37.1
	c39.3-4,78.3,21.4,117,13.2c16.5-3.5,31.2-12.8,47.2-17.9c42-13.4,87.4,3,127.1,22.3c24.6,11.9,49.6,25.8,65,48.5
	c11.8,17.4,16.8,38.3,21.5,58.8c18,77.8,34.4,163.8-3.7,234C1120.6,417.7,1092.8,443.7,1079.7,477.6z"/>
<linearGradient id="SVGID_1_" gradientUnits="userSpaceOnUse" x1="599.9896" y1="-81.8284" x2="599.9896" y2="646.6938" gradientTransform="matrix(1 0 0 -1 -19.44 646.68)">
	<stop  offset="0" style="stop-color:#000000;stop-opacity:0.2"/>
	<stop  offset="0.48" style="stop-color:#FFFFFF;stop-opacity:0"/>
	<stop  offset="1" style="stop-color:#FFFFFF;stop-opacity:0"/>
</linearGradient>
<path class="st1" d="M1153.8,344.7c-3.6,14-9,27.5-15.8,40.2c-17.4,31.9-45.1,58-58.3,91.9c-2,5-3.5,10.2-4.8,15.4
	c-0.5,2.2-1,4.3-1.3,6.5c-4.4,24.6-1.1,50,9.4,72.7c0.8,1.8,1.7,3.6,2.6,5.3c10.8,21.2,25.9,43.3,17.8,65.1
	c-0.8,2.2-1.9,4.3-3.1,6.3c-8,13-23.7,20.5-38.4,26.3c-65.4,25.9-134,42.5-204,49.4c-13.5,1.3-27,2.3-40.5,3l0,0
	c-38.2,2-76.6,1.8-114.9,1.6c-112.2-0.5-224.4-1.1-336.2-10c-51.1-4-102.4-9.9-151.6-24.4c-67.5-20-129.3-55.7-180.2-104.3
	c-1.8-1.7-3.6-3.5-5.4-5.3c-10.7-10.8-20.5-22.8-25.4-37.1c-6.8-19.8-3.3-40.9,4.5-60.8c3.5-8.8,7.7-17.4,12.5-25.6
	c1.3-2.3,2.6-4.5,4-6.7c14.3-23.9,30.6-47.1,36.3-74.2c7-33.5-3.3-66.9-15.4-99.5c-1.1-2.9-2.2-5.7-3.3-8.6
	c-2.7-7.1-5.4-14.1-8-21.1c-15.6-41.8-25.8-92.1-0.1-128.5c0.7-1,1.5-2,2.2-3c12-15.4,29.3-26,46.9-34.8l2.4-1.2
	C143.3,54.8,206.5,39.4,270.8,38c37.5-0.8,76.2,3,111.2-10.3c19.7-7.5,37.4-20.2,57.9-25.3c34.6-8.5,70.5,6.5,101.6,24
	c17.9,10.1,35.3,21.1,54,29.7c13.6,6.3,29.2,13.3,43.7,17.2c14.2,3.8,28.8-3.8,41.2-10.1c27-13.6,52.4-33.9,83.4-37.1
	c39.3-4,78.3,21.4,117,13.2c16.5-3.5,31.2-12.8,47.2-17.9c42-13.4,87.4,3,127.1,22.3c21.7,10.5,43.6,22.5,59,40.7
	c2.1,2.5,4.1,5.1,5.9,7.8c0.2,0.3,0.4,0.6,0.6,0.9c11.3,17.2,16.3,37.8,20.9,57.8c9.1,39.2,17.8,80.6,19.2,120.9
	C1161.8,296.8,1160,321.3,1153.8,344.7z"/>
<g class="st2">
	<path d="M1103.3,641.8c-0.8,2.2-1.9,4.3-3.1,6.3c0,0,0,0,0,0c-55.5,28.4-114.9,48.6-176.2,60c-34.3,6.4-70.1,12.7-106.7,18.7l0,0
		c-38.2,2-76.6,1.8-114.9,1.6c-112.2-0.5-224.4-1.1-336.2-10c-51.1-4-102.4-9.9-151.6-24.4c-67.5-20-129.3-55.7-180.2-104.3
		c-1.8-1.7-3.6-3.5-5.4-5.3c-10.7-10.8-20.5-22.8-25.4-37.1c-6.8-19.8-3.3-40.9,4.5-60.7c0,0,0,0,0,0l1065.4,12.1c0,0,0,0,0,0
		c-4.4,24.6-1.1,50,9.4,72.6c0.8,1.8,1.7,3.6,2.6,5.3C1096.4,598,1111.5,620,1103.3,641.8z"/>
	<path d="M1114.2,84.3C1114.2,84.3,1114.2,84.3,1114.2,84.3L83.3,84.3l2.4-1.2C143.3,54.8,206.5,39.4,270.8,38
		c37.5-0.8,76.2,3,111.2-10.3c19.7-7.5,37.4-20.2,57.9-25.3c34.6-8.5,70.5,6.5,101.6,24c17.9,10.1,35.3,21.1,54,29.7
		c13.6,6.3,29.2,13.3,43.7,17.2c14.2,3.8,28.8-3.8,41.2-10.1c27-13.6,52.4-33.9,83.4-37.1c39.3-4,78.3,21.4,117,13.2
		c16.5-3.5,31.2-12.8,47.2-17.9c42-13.4,87.4,3,127.1,22.3C1076.8,54.1,1098.7,66.2,1114.2,84.3z"/>
	<path d="M45.5,280.4C45.5,280.4,45.5,280.4,45.5,280.4c12.1,32.6,22.3,66.1,15.4,99.5c-5.6,27.1-22,50.3-36.2,74.2c0,0,0,0.1,0,0.1
		l1050.2,38c0,0,0,0,0,0c1.2-5.2,2.8-10.4,4.8-15.4c13.2-33.9,40.9-60,58.3-91.9c6.9-12.7,12.2-26.1,15.8-40.1c0,0,0,0,0,0
		L45.5,280.4z M467.2,400.3h-26.6c7.3-0.2,13.3,5.5,13.5,12.8s-5.5,13.3-12.8,13.5c-0.2,0-0.5,0-0.7,0h-154
		c-7.3,0.2-13.3-5.5-13.5-12.8s5.5-13.3,12.8-13.5c0.2,0,0.5,0,0.7,0h26.6c-7.3,0.2-13.3-5.5-13.5-12.8s5.5-13.3,12.8-13.5
		c0.2,0,0.5,0,0.7,0h-19c-8.6,0-15.4-8.3-12.5-17.4c1.7-5.4,6.9-9,12.5-9l0,0h154c8.6,0,15.4,8.3,12.5,17.4c-1.7,5.4-6.9,9-12.5,9
		l0,0h19c7.3-0.2,13.3,5.5,13.5,12.8s-5.5,13.3-12.8,13.5C467.7,400.3,467.4,400.3,467.2,400.3L467.2,400.3z"/>
	<path d="M1141.7,150.9c-4.6-20.1-9.6-40.7-20.9-57.8c0,0,0,0,0,0L36.3,119.2c0,0,0,0,0,0c-0.8,1-1.5,2-2.2,3
		c-25.8,36.4-15.5,86.7,0.1,128.5c2.6,7,5.3,14,8.1,21.1c0,0,0,0,0,0h1118.6c0,0,0,0,0,0C1159.4,231.5,1150.7,190.1,1141.7,150.9z
		 M232.3,201.8h-26.6c7.3-0.2,13.3,5.5,13.5,12.8s-5.5,13.3-12.8,13.5c-0.2,0-0.5,0-0.7,0h-154c-7.3,0.2-13.3-5.5-13.5-12.8
		s5.5-13.3,12.8-13.5c0.2,0,0.5,0,0.7,0h26.6C71,202,64.9,196.3,64.7,189s5.5-13.3,12.8-13.5c0.2,0,0.5,0,0.7,0l-18.6,0
		c-7.1,0-13.3-5.5-13.6-12.6c-0.3-7.6,5.7-13.8,13.2-13.8l153.6,0c7.1,0,13.3,5.5,13.6,12.6c0.3,7.6-5.7,13.8-13.2,13.8h19
		c7.3-0.2,13.3,5.5,13.5,12.8c0.2,7.3-5.5,13.3-12.8,13.5C232.7,201.8,232.5,201.8,232.3,201.8L232.3,201.8z"/>
</g>
<rect x="897.8" y="290.5" class="st3" width="5.1" height="283.1"/>
<path class="st3" d="M907.8,626.5c-4.8,3.8-11.6,3.8-16.4,0c-2.3-15.2,3.5-44.9,4.9-51.6c0.2-0.9,0.3-1.3,0.3-1.3h6.6
	c0.4,0.4,0.8,1,1,1.5C908.7,584.8,907.8,626.5,907.8,626.5z"/>
<path class="st4" d="M901.8,567.4v6.1H899v-6.1c0.4-0.1,0.9-0.1,1.3-0.1C900.8,567.3,901.3,567.3,901.8,567.4z"/>
<path class="st4" d="M904.2,575.1c-1.2,0.6-2.5,0.9-3.8,0.9c-1.4,0-2.9-0.3-4.1-1.1c0.2-0.9,0.3-1.3,0.3-1.3h6.6
	C903.6,574,903.9,574.5,904.2,575.1z"/>
<ellipse class="st3" cx="900.4" cy="571.6" rx="5.5" ry="3.3"/>
<polygon class="st3" points="876,244.9 895.2,236.7 924.3,242.4 902,225.5 "/>
<polygon class="st0" points="881.7,247.8 876,244.9 895.5,235.5 924.3,242.4 919.2,244.9 895.5,239.5 "/>
<polygon class="st3" points="881.7,247.8 876,244.9 896.1,234.6 924.3,242.4 919.2,244.9 895.5,239.5 "/>
<polygon class="st3" points="880.9,245.6 896.6,289.6 904.4,289.6 919,242.9 895.5,237.4 "/>
<polygon class="st3" points="908.3,277.2 905.2,287.2 904.4,289.6 896.6,289.6 896.1,288 892.4,277.7 898.3,274.2 "/>
<polygon class="st5" points="895.5,239.5 899.2,289.6 896.6,289.6 881.7,247.8 "/>
<polygon class="st4" points="902,225.5 895.5,235.5 876,244.9 "/>
<path class="st4" d="M905.2,287.2l-0.8,2.4h-7.8l-0.6-1.6c1.3-1.3,3.1-2,5-1.9C902.5,286.1,903.9,286.5,905.2,287.2z"/>
<path class="st4" d="M901.8,290.4v4.3c-0.2,0-0.5,0-0.7,0c-0.7,0-1.3-0.1-2-0.2v-4.1L901.8,290.4z"/>
<ellipse class="st3" cx="901" cy="290.5" rx="5.5" ry="3.3"/>
<path class="st3" d="M652.2,578c0,0-66.7-2.8-73.7-133.3S641,292.1,641,292.1s22-12.3,31.8-12.8s42.4,2.6,42.4,2.6l-35.9-6.9
	c0,0,50.6-19.3,65.7-20.8l-54.7,11.5c0,0-0.8-30.3,12.3-40.3c0,0-11.2-0.8-17.1,21c-3.4,12.8-12.7,23.2-25,28
	c-20.3,7.9-48.3,20.4-54.7,31.1c0,0-11.8,12.3-10-19.8s10.3-59.6,13.3-60.3c0,0,24.1-25.7,58-27.2c0,0-19.8-8-53.1,17
	c0,0-2.8-12.6,9.8-27.5s32.1-46.2,53.4-49.5c0,0-29.8-1.8-53.4,36.7c0,0-8.7,5.6-9.5-8.7c-0.8-14.4-5.9-32.4-5.9-32.4
	s-7.2,33.1,8,48c0,0-29,37.7-27.7,80.1c0,0-9,19.3-12.3-3.3c0,0-1.9-31.1-5.8-57.5c-3.2-21.5,2.8-43.3,16.4-60.3
	c6.4-8,10.9-15.7,8.4-19.8l-33.6,40c0,0-28.2-65.5-48.8-79.6s-23.1-17.2-23.1-17.2l33.1,38.8l-41.6-14.6l41.6,19.3
	c0,0,19.3,15.7,30.3,58.5s12.1,69.7,12.1,69.7s-59.3-47-70.6-45.4l38.4,29c21.1,16,34.3,40.3,36.1,66.7l0,0c0,0-74.2-19-92.2-22.6
	L443,228.7l25.7,32.9l-52.9-0.8l-30.3-21.6c0,0,23.9,20,21.6,21.3s-37.2,2.8-37.2,2.8s88.8-0.5,98.6,5.9S500,278,500,278l-62.9,9.5
	l75-5.4c0,0,56.7,10.3,59.8,28c0,0-11.6,30.1-19.3,42.1c-6.4,9.9-19.3,42.1-21.8,70.3c-2.6,28.2-6.2,71.6,3.6,98.1
	s13.3,41.6,8.5,49.5s-9.5,18.2,6.4,20.3s85.7-1,85.7-1S656.3,593.7,652.2,578z"/>
<path class="st4" d="M614.9,563.9c-7-3.6-15-4.6-22.6-2.8c-13.1,2.8-33.1,1.3-34.9,1"/>
<path class="st4" d="M573.1,410.2c0,0-3.2,50.2,2.5,60.1L573.1,410.2z"/>
<path class="st4" d="M561.3,470.3c0,0,4.1,47,6.9,56.2S561.3,470.3,561.3,470.3z"/>
<path class="st4" d="M557.3,354.7c-2.9,1.1-15.3,26.1-12.8,33.6S557.3,354.7,557.3,354.7z"/>
<path class="st4" d="M588.7,328.7c-1.3,0.6-7.1,15.1-6,19.3S588.7,328.7,588.7,328.7z"/>
<path class="st4" d="M535.2,412.9c1.4,14.6,2.2,24.1,1.3,35.8c-0.8,9.1-0.6,18.2,0.4,27.2"/>
<path class="st4" d="M690,243.3c-1.6,2.1-2.5,4.7-2.4,7.4c-0.1,2.6,0.3,5.3,0.1,7.9c-0.2,2.8-1.5,6-4.3,6.4"/>
<path class="st4" d="M642.6,156.4c-3.5,3.5-6.6,7.4-9.3,11.5c-0.8,1.3-1.7,2.6-2.6,3.7c-1.6,1.5-3.3,2.9-5.1,4.2
	c-4,3.3-6.9,7.7-8.1,12.7"/>
<path class="st4" d="M508.4,81.4c0.8,1.6,2,3.1,3.3,4.4c1.2,1.1,2.5,2,3.5,3.3c0.8,1.1,1.6,2.2,2.3,3.4c2.8,4.3,6,8.3,9.5,12"/>
<path class="st4" d="M570.6,155.7c-2.2,1.4-2.8,4.3-2.7,7s0.5,5.3-0.5,7.7c-0.4,1.1-1.2,2.1-1.6,3.2c-0.7,1.9-0.9,4-0.8,6
	c0,2.4,0.1,4.7,0.2,7.1c0.1,2.9,0.4,5.9,2.3,8"/>
<path class="st6" d="M552,229.3c2.1,1.1,4,2.4,5.8,4c1.8,1.6,2.9,3.7,3.3,6c0.1,1,0.1,2,0.3,3c0.4,1.3,1.1,2.6,2,3.6
	c1.5,1.9,3.1,3.7,4.9,5.4"/>
<path class="st4" d="M568.8,296.3c-1.5-1.2-3-2.3-4.7-3.2c-1.5-0.9-3.1-1.6-4.8-2.1c-2.6-0.7-5.3-0.6-7.9-0.9s-5.4-1-7.2-3"/>
<path class="st4" d="M464.4,263.9c3.1,0.1,6.4,0.2,9.1,1.6c1.4,0.7,2.6,1.8,4,2.5c1.8,1,3.8,1.5,5.9,1.5"/>
<path class="st4" d="M507.7,276.8c-0.8-0.4-1.7-0.2-2.2,0.5c-0.6,0.6-0.9,1.5-1.4,2.1c-1.1,1.2-3,1.4-4.7,1.4"/>
<path class="st4" d="M525.6,210.4l3,1.6c3.1,1.5,6.1,3.3,8.8,5.4"/>
<path class="st4" d="M559.8,239.8c2-0.5,3.7,1.6,4,3.6s-0.1,4.1,0.5,6c0.6,1.7,1.7,3.2,3,4.4"/>
<path class="st4" d="M593.2,243.4c1.8,5.4-2,11.2-0.9,16.8c0.3,1.7,1.1,3.3,1.5,4.9c1,4.4-0.8,9.1-3.6,12.6"/>
<polygon class="st3" points="293.4,623.1 295,626.4 295,602 293.4,602 "/>
<polygon class="st3" points="194.1,623.1 192.6,626.4 192.6,602 194.1,602 "/>
<rect x="200.4" y="557.3" class="st3" width="4.3" height="30"/>
<rect x="286" y="557.3" class="st3" width="4.3" height="30"/>
<g class="st2">
	<rect x="200.4" y="557.3" width="4.3" height="30"/>
	<rect x="286" y="557.3" width="4.3" height="30"/>
</g>
<rect x="200.4" y="557.3" class="st4" width="4.3" height="3.5"/>
<rect x="286" y="557.3" class="st4" width="4.3" height="3.5"/>
<rect x="193.8" y="556" class="st3" width="102.6" height="4.5"/>
<rect x="200.4" y="562.3" class="st4" width="4.3" height="4.5"/>
<rect x="286" y="562.3" class="st4" width="4.3" height="4.5"/>
<rect x="193.8" y="562.1" class="st3" width="102.6" height="4.5"/>
<rect x="200.4" y="568.4" class="st4" width="4.3" height="4.5"/>
<rect x="286" y="568.4" class="st4" width="4.3" height="4.5"/>
<rect x="193.8" y="568.1" class="st3" width="102.6" height="4.5"/>
<rect x="200.4" y="574.5" class="st4" width="4.3" height="4.5"/>
<rect x="286" y="574.5" class="st4" width="4.3" height="4.5"/>
<rect x="193.8" y="574.2" class="st3" width="102.6" height="4.5"/>
<rect x="200.4" y="580.6" class="st4" width="4.3" height="4.5"/>
<rect x="286" y="580.6" class="st4" width="4.3" height="4.5"/>
<rect x="193.8" y="580.3" class="st3" width="102.6" height="4.5"/>
<g class="st2">
	<circle cx="202.5" cy="558.5" r="0.6"/>
	<circle cx="202.5" cy="564.6" r="0.6"/>
	<circle cx="202.5" cy="570.7" r="0.6"/>
	<circle cx="202.5" cy="576.7" r="0.6"/>
	<circle cx="202.5" cy="582.8" r="0.6"/>
	<circle cx="288.2" cy="558.5" r="0.6"/>
	<circle cx="288.2" cy="564.6" r="0.6"/>
	<circle cx="288.2" cy="570.7" r="0.6"/>
	<circle cx="288.2" cy="576.7" r="0.6"/>
	<circle cx="288.2" cy="582.8" r="0.6"/>
</g>
<circle class="st3" cx="202.5" cy="558.2" r="0.6"/>
<circle class="st3" cx="202.5" cy="564.3" r="0.6"/>
<circle class="st3" cx="202.5" cy="570.4" r="0.6"/>
<circle class="st3" cx="202.5" cy="576.5" r="0.6"/>
<circle class="st3" cx="202.5" cy="582.5" r="0.6"/>
<circle class="st3" cx="202.5" cy="558.2" r="0.6"/>
<circle class="st3" cx="202.5" cy="564.3" r="0.6"/>
<circle class="st3" cx="202.5" cy="570.4" r="0.6"/>
<circle class="st3" cx="202.5" cy="576.5" r="0.6"/>
<circle class="st3" cx="202.5" cy="582.5" r="0.6"/>
<circle class="st3" cx="288.2" cy="558.2" r="0.6"/>
<circle class="st3" cx="288.2" cy="564.3" r="0.6"/>
<circle class="st3" cx="288.2" cy="570.4" r="0.6"/>
<circle class="st3" cx="288.2" cy="576.5" r="0.6"/>
<circle class="st3" cx="288.2" cy="582.5" r="0.6"/>
<g class="st2">
	<circle cx="202.5" cy="558.2" r="0.6"/>
	<circle cx="202.5" cy="564.3" r="0.6"/>
	<circle cx="202.5" cy="570.4" r="0.6"/>
	<circle cx="202.5" cy="576.5" r="0.6"/>
	<circle cx="202.5" cy="582.5" r="0.6"/>
	<circle cx="202.5" cy="558.2" r="0.6"/>
	<circle cx="202.5" cy="564.3" r="0.6"/>
	<circle cx="202.5" cy="570.4" r="0.6"/>
	<circle cx="202.5" cy="576.5" r="0.6"/>
	<circle cx="202.5" cy="582.5" r="0.6"/>
	<circle cx="288.2" cy="558.2" r="0.6"/>
	<circle cx="288.2" cy="564.3" r="0.6"/>
	<circle cx="288.2" cy="570.4" r="0.6"/>
	<circle cx="288.2" cy="576.5" r="0.6"/>
	<circle cx="288.2" cy="582.5" r="0.6"/>
</g>
<polygon class="st3" points="298.7,589 191.4,589 193.8,586 296.4,586 "/>
<polygon class="st3" points="302.5,593.6 187.3,593.3 191.2,589.2 299.2,589.2 "/>
<polygon class="st3" points="306.1,598 183.2,598 186.9,593.8 302.8,593.9 "/>
<polygon class="st3" points="201.9,602 201.9,610.8 200.4,613.7 199.9,603.3 199.8,602 "/>
<polygon class="st3" points="288.1,602 288.1,603.3 287.6,613.7 286,610.8 286,602 "/>
<rect x="196.4" y="601.3" class="st3" width="3.9" height="12.4"/>
<rect x="287.6" y="601.3" class="st3" width="3.9" height="12.4"/>
<polygon class="st4" points="200.4,602 201.9,602 201.9,603.3 196.4,603.3 196.4,601.3 200.4,601.3 "/>
<rect x="196.4" y="601.3" class="st4" width="3.9" height="12.4"/>
<rect x="287.6" y="601.3" class="st4" width="3.9" height="12.4"/>
<polygon class="st4" points="291.5,601.3 291.5,603.3 286,603.3 286,602 287.6,602 287.6,601.3 "/>
<rect x="191.4" y="599.9" class="st3" width="105" height="3.1"/>
<rect x="191.4" y="599.9" class="st4" width="105" height="3.1"/>
<rect x="188.1" y="599.3" class="st3" width="4.5" height="27"/>
<rect x="295" y="599.4" class="st3" width="4.5" height="27"/>
<rect x="188.1" y="599.3" class="st4" width="4.5" height="27"/>
<rect x="295" y="599.4" class="st4" width="4.5" height="27"/>
<rect x="191.4" y="599.9" class="st4" width="105" height="0.3"/>
<circle class="st4" cx="190.1" cy="601.6" r="0.6"/>
<circle class="st4" cx="297.6" cy="601.5" r="0.6"/>
<polygon class="st3" points="184.2,596.9 183.2,598 183.2,599 306.1,599 306.1,598 305.2,596.9 "/>
<rect x="183.2" y="598" class="st3" width="123" height="1.9"/>
<path class="st3" d="M493.8,549c-0.6,0.8-1,1.6-1.3,2.5c-0.1,0.2-0.2,0.5-0.3,0.7c-0.2-0.1-0.3-0.1-0.5-0.2
	c-0.7-0.2-1.4-0.2-2.1-0.2c0-0.3,0-0.6,0-0.9c0.1-3.1-0.3-7.5-3.3-5.6s-0.8,4.7,1,6.6l0.5,0.5c-1.7,1.2-2,4-2.3,6.9
	s-2.7,6.1-4.4,7.9l-0.5,0.5c-1.3-1.1-3.1-1.5-4.8-1.2c-0.1-0.3-0.1-0.5-0.2-0.8c-1.3-4.8-4.1-13.1-7.6-14.9c0.1-0.2,0.3-0.4,0.5-0.6
	c1.5-2,3.2-4.8,0.7-5.6s-2.7,2.5-2.6,5c0,0.3,0,0.6,0.1,0.9c-1,0-1.9,0.5-2.6,1.3l-0.4-0.5c-2-2.4-5.7-6.1-6.8-3.3
	c-1,2.7,2.2,6.1,4.5,8.1l0.1,0.1c-1.5,6.2,5.2,11.3,8.8,13.5l0.5,0.3c-5,5.8-8,16.8-8,16.8l13.9,2.5c0,0,9.2-8,8-15.4h0.1
	c9.2-1.8,11.3-11.7,9.9-17.5l0.2-0.1c1.7-0.7,3.1-1.8,4.3-3.2C501.9,549.5,496.5,545.5,493.8,549z"/>
<path class="st4" d="M493.8,549c-0.6,0.8-1,1.6-1.3,2.5c-0.1,0.2-0.2,0.5-0.3,0.7c-0.2-0.1-0.3-0.1-0.5-0.2
	c-0.7-0.2-1.4-0.2-2.1-0.2c0-0.3,0-0.6,0-0.9c0.1-3.1-0.3-7.5-3.3-5.6s-0.8,4.7,1,6.6l0.5,0.5c-1.7,1.2-2,4-2.3,6.9
	s-2.7,6.1-4.4,7.9l-0.5,0.5c-1.3-1.1-3.1-1.5-4.8-1.2c-0.1-0.3-0.1-0.5-0.2-0.8c-1.3-4.8-4.1-13.1-7.6-14.9c0.1-0.2,0.3-0.4,0.5-0.6
	c1.5-2,3.2-4.8,0.7-5.6s-2.7,2.5-2.6,5c0,0.3,0,0.6,0.1,0.9c-1,0-1.9,0.5-2.6,1.3l-0.4-0.5c-2-2.4-5.7-6.1-6.8-3.3
	c-1,2.7,2.2,6.1,4.5,8.1l0.1,0.1c-1.5,6.2,5.2,11.3,8.8,13.5l0.5,0.3c-5,5.8-8,16.8-8,16.8l13.9,2.5c0,0,9.2-8,8-15.4h0.1
	c9.2-1.8,11.3-11.7,9.9-17.5l0.2-0.1c1.7-0.7,3.1-1.8,4.3-3.2C501.9,549.5,496.5,545.5,493.8,549z"/>
<path class="st3" d="M466.1,553l-1.6,4.8c0,0-0.9-0.6-2-1.6c-2.3-2-5.5-5.4-4.5-8.1c1.1-2.8,4.8,0.9,6.8,3.3
	C465.6,552.3,466.1,553,466.1,553z"/>
<path class="st3" d="M469.6,550.3c-0.5,0.7-1,1.3-1.6,1.9c0,0-0.2-1.1-0.3-2.5c-0.1-2.4,0.1-5.7,2.6-5S471.1,548.4,469.6,550.3z"/>
<path class="st3" d="M490.6,551.1c0,1.6-0.2,2.8-0.2,2.8c-0.7-0.6-1.4-1.2-2-1.8c-1.8-1.9-3.9-4.9-1-6.6S490.6,547.9,490.6,551.1z"
	/>
<path class="st3" d="M500.2,553.1c-1.1,1.4-2.6,2.5-4.3,3.2c-0.5,0.2-0.9,0.4-1.4,0.5l-1.9-2.7c0.2-0.9,0.5-1.8,0.8-2.6
	c0.3-0.9,0.8-1.8,1.3-2.5C497.3,545.5,502.8,549.5,500.2,553.1z"/>
<path class="st4" d="M464.8,551.3c0.8,1,1.3,1.7,1.3,1.7l-1.6,4.8c0,0-0.9-0.6-2-1.6c0.3-1.5,0.9-3,1.8-4.2
	C464.5,551.7,464.6,551.5,464.8,551.3z"/>
<path class="st4" d="M469.6,550.3c-0.5,0.7-1,1.3-1.6,1.9c0,0-0.2-1.1-0.3-2.5C468.4,549.7,469,549.9,469.6,550.3z"/>
<path class="st3" d="M477.6,569.2l-4,1.8c0,0-0.9-0.4-2.2-1.2c-4.3-2.6-12.8-9.2-7.1-17s10.5,6.2,12.4,13
	C477.3,567.8,477.6,569.2,477.6,569.2z"/>
<path class="st4" d="M488.3,552.1c0.6-0.6,1.4-1,2.2-1c0,1.6-0.2,2.8-0.2,2.8C489.6,553.3,489,552.7,488.3,552.1z"/>
<path class="st4" d="M495.9,556.3c-0.5,0.2-0.9,0.4-1.4,0.5l-1.9-2.7c0.2-0.9,0.5-1.8,0.8-2.6C494.6,552.3,495.5,554.1,495.9,556.3z
	"/>
<path class="st3" d="M485.9,573.9c-0.2,0-0.5,0.1-0.7,0.1c-13.6,2.1-4.5-5.3-4.5-5.3s0.6-0.6,1.4-1.5c1.6-1.8,4.1-5,4.4-7.9
	c0.4-4.4,0.9-8.5,6.1-7.3S498.7,571.4,485.9,573.9z"/>
<path class="st4" d="M476.7,565.8c0.6,2,0.9,3.4,0.9,3.4l-4,1.8c0,0-0.9-0.4-2.2-1.2C473,567.8,474.8,566.3,476.7,565.8z"/>
<path class="st4" d="M485.9,573.9c-0.2,0-0.5,0.1-0.7,0.1c-13.6,2.1-4.5-5.3-4.5-5.3s0.6-0.6,1.4-1.5
	C484.3,568.9,485.7,571.3,485.9,573.9z"/>
<path class="st3" d="M463.8,586.9c0,0,7.6-27.2,18.3-18.8c10.7,8.4-4.3,21.3-4.3,21.3L463.8,586.9z"/>
<circle class="st4" cx="467.6" cy="557.1" r="0.8"/>
<circle class="st4" cx="467.6" cy="561.1" r="0.8"/>
<circle class="st4" cx="492.3" cy="557.9" r="0.8"/>
<circle class="st4" cx="472.4" cy="578.2" r="0.8"/>
<circle class="st4" cx="490.5" cy="564.5" r="0.8"/>
<circle class="st4" cx="481.7" cy="573.3" r="0.8"/>
<circle class="st4" cx="470.5" cy="558.8" r="0.8"/>
<circle class="st4" cx="489.9" cy="560.4" r="0.8"/>
<circle class="st4" cx="487" cy="567" r="0.8"/>
<circle class="st4" cx="478.1" cy="577.6" r="0.8"/>
<circle class="st4" cx="476.2" cy="573.4" r="0.8"/>
<circle class="st4" cx="471.8" cy="564" r="0.8"/>
<circle class="st4" cx="479.2" cy="581.4" r="0.8"/>
<circle class="st4" cx="474.1" cy="582.5" r="0.8"/>
<path class="st3" d="M346.4,604.8c0,0,15.8-31.7,22.9-33.1L346.4,604.8z"/>
<path class="st3" d="M350.4,611.6c0,0,15.8-31.7,22.9-33.1L350.4,611.6z"/>
<path class="st3" d="M353.8,618.6c0,0,15.8-31.7,22.8-33.1L353.8,618.6z"/>
<path class="st3" d="M414.6,598.7c0,0,15.8-31.7,22.8-33.1L414.6,598.7z"/>
<path class="st3" d="M418.6,605.4c0,0,15.8-31.7,22.8-33.1L418.6,605.4z"/>
<path class="st3" d="M422,612.4c0,0,15.8-31.7,22.9-33.1L422,612.4z"/>
<path class="st3" d="M620.2,566.8c0,0,15.8-31.7,22.8-33.1L620.2,566.8z"/>
<path class="st3" d="M624.1,573.5c0,0,15.8-31.7,22.8-33.1L624.1,573.5z"/>
<path class="st3" d="M627.6,580.5c0,0,15.8-31.7,22.8-33.1L627.6,580.5z"/>
<path class="st3" d="M365.7,611c0,0-10.9-33.7-6.8-39.6L365.7,611z"/>
<path class="st3" d="M427.7,607.3c0,0-10.9-33.7-6.8-39.6L427.7,607.3z"/>
<path class="st3" d="M627.6,585.3c0,0-10.9-33.7-6.8-39.7L627.6,585.3z"/>
<path class="st7" d="M892.3,633.4c0,0-13.8-24.5-34.7-31.6c-8.8-2.9-16.3-8.6-21.6-16.2c-2.5-3.6-4.6-7.5-6.4-11.5"/>
<path class="st3" d="M817.3,570.5c2.4,2.3,13.4,4.7,13.4,4.7s-2.7-11-5.1-13.3c-2.2-2.4-6-2.6-8.5-0.4c-2.4,2.2-2.6,6-0.4,8.5
	C816.9,570.1,817.1,570.3,817.3,570.5L817.3,570.5z"/>
<path class="st3" d="M822.8,589.5c3.3,0.7,13.8-3.4,13.8-3.4s-8.3-7.7-11.5-8.4c-3.3-0.5-6.3,1.8-6.8,5.1
	C817.9,585.9,819.8,588.8,822.8,589.5z"/>
<path class="st3" d="M845.6,611.1c3.1-1.1,10.2-9.9,10.2-9.9s-11-2.5-14.2-1.4c-3.1,1.2-4.6,4.7-3.4,7.8
	C839.4,610.4,842.6,612,845.6,611.1z"/>
<path class="st3" d="M866.4,623.5c3.3-0.5,11.8-8,11.8-8s-10.4-4.3-13.7-3.8c-3.3,0.4-5.6,3.4-5.2,6.7s3.4,5.6,6.7,5.2
	C866.1,623.5,866.3,623.5,866.4,623.5L866.4,623.5z"/>
<path class="st3" d="M845.8,577.6c0,3.3-6,12.9-6,12.9s-6-9.6-6-12.9c0-3.3,2.7-6,6-6S845.8,574.3,845.8,577.6L845.8,577.6z"/>
<path class="st3" d="M870.1,592.4c-1,3.2-9.6,10.5-9.6,10.5s-2.8-11-1.9-14.1c1.1-3.1,4.6-4.7,7.7-3.6
	C869.2,586.3,870.9,589.4,870.1,592.4L870.1,592.4z"/>
<path class="st3" d="M891.7,610c-0.5,3.3-7.7,12-7.7,12s-4.7-10.3-4.2-13.6c0.6-3.3,3.7-5.4,7-4.8C889.8,604.2,892,607,891.7,610
	L891.7,610z"/>
<path class="st7" d="M891.5,632.9c0,0-2.7-28-18.9-42.9c-6.8-6.2-11.5-14.5-13.2-23.5c-0.8-4.3-1.2-8.7-1.2-13.1"/>
<path class="st3" d="M848,545.5c1.2,3.1,10.4,9.7,10.4,9.7s2-11.2,0.7-14.2c-1.4-3-4.9-4.4-7.9-3C848.4,539.3,847,542.6,848,545.5z"
	/>
<path class="st3" d="M845.7,564.7c2.7,1.9,14,2.5,14,2.5s-4.4-10.4-7.1-12.3c-2.8-1.8-6.5-0.9-8.3,1.9
	C842.7,559.3,843.3,562.8,845.7,564.7z"/>
<path class="st3" d="M857.8,593.5c3.3,0.3,13.4-4.9,13.4-4.9s-9.1-6.8-12.4-7c-3.3-0.5-6.3,1.8-6.8,5.1c-0.5,3.3,1.8,6.3,5.1,6.8
	C857.4,593.5,857.6,593.5,857.8,593.5L857.8,593.5z"/>
<path class="st3" d="M871.9,613.3c3.2,0.8,14-2.6,14-2.6s-7.8-8.2-11-9c-3.2-1-6.5,0.7-7.5,3.9c-1,3.2,0.7,6.5,3.9,7.5
	C871.5,613.3,871.7,613.3,871.9,613.3L871.9,613.3z"/>
<path class="st3" d="M871.6,563.1c-1.3,3-10.7,9.4-10.7,9.4s-1.6-11.2-0.3-14.2c1.2-3.1,4.6-4.7,7.7-3.5s4.7,4.6,3.5,7.7
	C871.8,562.7,871.7,562.9,871.6,563.1z"/>
<path class="st3" d="M887.8,586.4c-2.2,2.5-13,5.7-13,5.7s1.8-11.2,4-13.7c2.3-2.4,6.1-2.4,8.5-0.1
	C889.5,580.6,889.7,584,887.8,586.4L887.8,586.4z"/>
<path class="st3" d="M900.4,611.3c-1.7,2.8-11.9,7.9-11.9,7.9s-0.1-11.3,1.7-14.1c1.6-2.9,5.3-4,8.2-2.4c2.9,1.6,4,5.3,2.4,8.2
	C900.6,611,900.5,611.2,900.4,611.3L900.4,611.3z"/>
<path class="st3" d="M277.9,403.5c0,0,18.7-1.1,16.5,12c0.2,1.4-0.4,2.7-1.7,3.4c0,0,0-1-1.9-0.6c-0.7,0.1-1.3,0.1-2,0.1
	c-0.9-0.1-1.8-0.4-2.5-1l0,0c0,0-5.3-2.2-7.3-10.8c0,0-1.5-1.9-1.5-2.4l3.2,1.4c-0.6,1.3-0.7,2.8-0.2,4.2c0,0,0.1-4.1,0.7-4
	c0.1,0,1.6,0.8,1.6,0.8s-1.9,4-0.5,6.9c0,0-0.5-4.9,1-6.6l2.2,1.3c0,0-2.2,4.1-0.7,7.5c0,0-0.4-5.1,1.2-7.1l2,1.6c0,0-2,4-0.8,6.8
	c0,0,0.2-6,1.2-6.4c0.8,0.7,1.4,1.4,2,2.2c0,0-1.4,2.9-0.5,4.5c0,0,0.5-4,1-4c0.9,1.4,1.6,2.9,1.9,4.5c-0.1-1.7-0.6-3.3-1.5-4.7
	c1,0.2,1.9,0.7,2.7,1.4c0,0-0.3-1.9-3.1-2c-0.5-0.8-1.1-1.5-1.8-2.1c1.5-0.1,3.1,0,4.5,0.5c0,0-1.5-1.8-5.1-1l-2-1.6
	c0,0,3.7-0.5,5.3,0.1c0,0-1.8-1.6-5.9-0.4l-2.2-1.3c1.7-0.4,3.4-0.5,5.1-0.4c0,0-2-1.1-5.7,0.1l-1.5-0.7c0,0,2.3-0.5,3-0.5
	s0.7-0.3,0.7-0.3c-1.5-0.2-3-0.1-4.4,0.5C281,404.9,277.8,403.7,277.9,403.5z"/>
<path class="st3" d="M368.5,364.3c0,0,18.7-1.1,16.5,12c0.2,1.4-0.4,2.7-1.7,3.4c0,0,0-1-1.9-0.6c-0.7,0.1-1.3,0.1-2,0.1
	c-0.9-0.1-1.8-0.4-2.5-1l0,0c0,0-5.3-2.2-7.3-10.8c0,0-1.5-1.9-1.5-2.4l3.2,1.4c-0.6,1.3-0.7,2.8-0.2,4.2c0,0,0.1-4.1,0.7-4
	c0.1,0,1.6,0.8,1.6,0.8s-1.9,4-0.5,6.9c0,0-0.5-4.9,1-6.6l2.2,1.3c0,0-2.2,4.1-0.7,7.4c0,0-0.4-5.1,1.2-7.1l2,1.6c0,0-2,4-0.8,6.8
	c0,0,0.2-6,1.2-6.4c0.8,0.7,1.4,1.4,2,2.2c0,0-1.4,2.9-0.5,4.5c0,0,0.5-4,1-4c0.9,1.4,1.6,2.9,1.9,4.5c-0.1-1.7-0.6-3.3-1.5-4.7
	c1,0.2,1.9,0.7,2.7,1.4c0,0-0.3-1.9-3.1-2c-0.5-0.8-1.1-1.5-1.8-2.1c1.5-0.1,3.1,0.1,4.5,0.5c0,0-1.5-1.8-5.1-1l-2-1.6
	c0,0,3.7-0.5,5.3,0.1c0,0-1.8-1.6-5.9-0.4l-2.2-1.3c1.7-0.4,3.4-0.5,5.1-0.4c0,0-2-1.1-5.7,0.1l-1.5-0.7c0,0,2.3-0.5,3-0.5
	s0.7-0.3,0.7-0.3c-1.5-0.2-3-0.1-4.4,0.5C370.6,365.3,369.5,364.9,368.5,364.3z"/>
<path class="st3" d="M429.3,219.8c0,0,18.7-1.1,16.5,12c0.2,1.4-0.4,2.7-1.7,3.4c0,0,0-1-1.9-0.6c-0.7,0.1-1.3,0.1-2,0.1
	c-0.9-0.1-1.8-0.4-2.5-1l0,0c0,0-5.3-2.2-7.3-10.8c0,0-1.5-1.9-1.5-2.4l3.2,1.4c-0.6,1.3-0.7,2.8-0.2,4.2c0,0,0.1-4.1,0.7-4
	c0.1,0,1.6,0.8,1.6,0.8s-1.9,4-0.5,6.9c0,0-0.5-4.9,1-6.6l2.2,1.3c0,0-2.2,4.1-0.7,7.4c0,0-0.4-5.1,1.2-7.1l2,1.6c0,0-2,4-0.8,6.8
	c0,0,0.2-6,1.2-6.4c0.8,0.6,1.4,1.4,2,2.2c0,0-1.4,2.9-0.5,4.5c0,0,0.5-4,1-4c0.9,1.4,1.6,2.9,1.9,4.5c-0.1-1.7-0.6-3.3-1.5-4.7
	c1,0.2,1.9,0.7,2.7,1.4c0,0-0.3-1.9-3.1-2c-0.5-0.8-1.2-1.5-1.8-2.1c1.5-0.1,3.1,0.1,4.5,0.5c0,0-1.5-1.8-5.1-1l-2-1.6
	c0,0,3.7-0.5,5.3,0c0,0-1.8-1.6-5.9-0.4l-2.2-1.3c1.7-0.4,3.4-0.5,5.1-0.4c0,0-2-1.1-5.7,0.1l-1.5-0.7c0,0,2.3-0.5,3-0.5
	s0.7-0.3,0.7-0.3c-1.5-0.2-3-0.1-4.4,0.5C431.4,220.8,430.3,220.3,429.3,219.8z"/>
<path class="st3" d="M483.8,177.3c0,0,18.7-1.1,16.5,12c0.2,1.4-0.4,2.7-1.7,3.4c0,0,0-1-1.9-0.6c-0.7,0.1-1.3,0.1-2,0.1
	c-0.9-0.1-1.8-0.4-2.5-1l0,0c0,0-5.3-2.2-7.3-10.8c0,0-1.5-1.9-1.5-2.4l3.1,1.3c-0.6,1.3-0.7,2.8-0.2,4.2c0,0,0.1-4.1,0.7-4
	c0.1,0,1.6,0.8,1.6,0.8s-1.9,4-0.5,6.9c0,0-0.5-4.9,1-6.6l2.2,1.3c0,0-2.2,4.1-0.7,7.5c0,0-0.4-5.1,1.2-7.1l2,1.6c0,0-2,4-0.8,6.8
	c0,0,0.2-6,1.2-6.4c0.8,0.6,1.4,1.4,2,2.2c0,0-1.4,2.9-0.5,4.5c0,0,0.5-4,1-4c0.9,1.3,1.6,2.9,1.9,4.4c-0.1-1.7-0.6-3.3-1.5-4.7
	c1,0.2,2,0.7,2.7,1.4c0,0-0.3-1.9-3.1-2c-0.5-0.8-1.1-1.5-1.8-2.1c1.5-0.1,3.1,0,4.6,0.5c0,0-1.5-1.8-5.1-1l-1.9-1.6
	c0,0,3.7-0.5,5.3,0c0,0-1.8-1.5-5.9-0.4l-2.2-1.3c1.7-0.4,3.4-0.5,5.1-0.4c0,0-2-1.1-5.7,0.1l-1.5-0.7c0,0,2.3-0.5,3-0.5
	s0.7-0.3,0.7-0.3c-1.5-0.3-3-0.1-4.4,0.5C487,178.6,483.7,177.5,483.8,177.3z"/>
<path class="st3" d="M601.2,104.5c0,0,6.7,17.5-6.5,19.3c-1.2,0.6-2.7,0.4-3.7-0.6c0,0,0.9-0.3,0-2c-0.3-0.6-0.5-1.3-0.7-1.9
	c-0.2-0.9-0.1-1.8,0.3-2.7l0,0c0,0,0.5-5.7,8.1-10.2c0,0,1.3-2,1.8-2.1l-0.3,3.4c-1.4-0.2-2.9,0.2-4,1c0,0,3.9-1.1,4-0.5
	c0,0.1-0.3,1.8-0.3,1.8s-4.3-0.6-6.7,1.6c0,0,4.5-2,6.6-1l-0.6,2.5c0,0-4.6-0.9-7.3,1.6c0,0,4.8-1.9,7.2-1l-0.9,2.4
	c0,0-4.5-0.7-6.7,1.3c0,0,5.8-1.6,6.5-0.7c-0.4,0.9-0.9,1.8-1.5,2.6c0,0-3.2-0.5-4.4,0.8c0,0,4-0.7,4.1-0.3c-1,1.3-2.3,2.3-3.7,3.2
	c1.6-0.6,2.9-1.6,4-2.8c0.1,1-0.1,2.1-0.5,3c0,0,1.7-0.8,1-3.6c0.6-0.7,1.1-1.5,1.5-2.4c0.6,1.4,0.9,3,0.8,4.5c0,0,1.2-2-0.6-5.1
	l1-2.4c0,0,1.6,3.4,1.5,5.1c0,0,0.9-2.2-1.3-5.7l0.6-2.4c0.8,1.5,1.5,3.1,1.9,4.7c0,0,0.4-2.2-1.8-5.4l0.2-1.7c0,0,1.1,2.1,1.4,2.7
	s0.5,0.6,0.5,0.6c-0.2-1.5-0.8-2.9-1.8-4C600.8,106.9,601,105.7,601.2,104.5z"/>
<path class="st3" d="M941.8,413c0,0,18.7-1.1,16.5,12c0.2,1.4-0.4,2.7-1.7,3.4c0,0,0-1-1.9-0.6c-0.7,0.1-1.3,0.1-2,0.1
	c-0.9-0.1-1.8-0.4-2.5-1l0,0c0,0-5.3-2.2-7.3-10.8c0,0-1.5-1.9-1.5-2.4l3.2,1.4c-0.6,1.3-0.7,2.8-0.2,4.2c0,0,0.1-4.1,0.7-4
	c0.1,0,1.6,0.8,1.6,0.8s-1.9,4-0.5,6.9c0,0-0.5-4.9,1-6.6l2.2,1.3c0,0-2.2,4.1-0.7,7.5c0,0-0.4-5.1,1.2-7.1l2,1.6c0,0-2,4-0.8,6.8
	c0,0,0.2-6,1.2-6.4c0.8,0.6,1.4,1.4,2,2.2c0,0-1.4,2.9-0.5,4.5c0,0,0.5-4,1-4c0.9,1.3,1.6,2.9,1.9,4.4c-0.1-1.7-0.6-3.3-1.5-4.7
	c1,0.2,1.9,0.7,2.7,1.4c0,0-0.3-1.9-3.1-2c-0.5-0.8-1.1-1.5-1.8-2.1c1.5-0.1,3.1,0,4.6,0.5c0,0-1.5-1.8-5.1-1l-2-1.6
	c0,0,3.7-0.5,5.3,0c0,0-1.8-1.5-5.8-0.4l-2.2-1.3c1.7-0.4,3.4-0.5,5.1-0.4c0,0-2-1.1-5.7,0.1l-1.5-0.7c0,0,2.3-0.5,3-0.5
	s0.7-0.3,0.7-0.3c-1.5-0.3-3-0.1-4.4,0.5C945,414.4,941.8,413.2,941.8,413z"/>
<path class="st3" d="M358.6,457.7c0,0,11.6,14.8-0.5,20.4c-1,1-2.5,1.2-3.7,0.5c0,0,0.8-0.6-0.6-1.9c-0.5-0.5-0.9-1-1.2-1.6
	c-0.5-0.8-0.7-1.7-0.6-2.6l0,0c0,0-1.2-5.6,4.7-12.1c0,0,0.7-2.3,1.1-2.5l0.7,3.4c-1.4,0.2-2.7,1-3.6,2.2c0,0,3.4-2.2,3.7-1.7
	c0.1,0.1,0.3,1.8,0.3,1.8s-4.3,0.7-5.9,3.5c0,0,3.7-3.2,6-2.9l0.2,2.6c0,0-4.6,0.5-6.5,3.7c0,0,4-3.2,6.5-3.1l-0.1,2.5
	c0,0-4.5,0.6-6.1,3.2c0,0,5-3.3,6-2.6c-0.1,1-0.3,2-0.6,2.9c0,0-3.2,0.5-4,2.1c0,0,3.6-1.8,3.8-1.5c-0.6,1.5-1.5,2.9-2.5,4.1
	c1.3-1,2.4-2.4,3-3.9c0.4,0.9,0.5,2,0.4,3c0,0,1.4-1.3-0.1-3.7c0.3-0.9,0.6-1.8,0.7-2.7c1,1.2,1.7,2.5,2.2,4c0,0,0.6-2.3-2.1-4.7
	l0.2-2.6c0,0,2.5,2.8,3,4.4c0,0,0.3-2.4-3-5l-0.2-2.5c1.2,1.2,2.3,2.5,3.3,3.9c0,0-0.3-2.3-3.3-4.7l-0.3-1.7c0,0,1.7,1.7,2.1,2.2
	s0.6,0.4,0.6,0.4c-0.6-1.4-1.6-2.5-2.9-3.3C359.3,461.1,358.5,457.7,358.6,457.7z"/>
<path class="st3" d="M956.6,348.5c0,0,11.6,14.8-0.5,20.4c-1,1-2.5,1.2-3.7,0.5c0,0,0.8-0.6-0.6-2c-0.5-0.5-0.9-1-1.2-1.6
	c-0.5-0.8-0.7-1.7-0.6-2.6l0,0c0,0-1.2-5.6,4.7-12.1c0,0,0.7-2.3,1.1-2.5l0.7,3.4c-1.4,0.2-2.7,1-3.6,2.2c0,0,3.4-2.2,3.7-1.7
	c0.1,0.1,0.3,1.8,0.3,1.8s-4.3,0.7-5.9,3.5c0,0,3.7-3.2,6-2.9l0.2,2.6c0,0-4.6,0.5-6.5,3.7c0,0,4-3.2,6.5-3.1l-0.1,2.5
	c0,0-4.5,0.6-6.1,3.2c0,0,5-3.3,6-2.6c-0.1,1-0.3,2-0.7,2.9c0,0-3.2,0.5-4,2.1c0,0,3.6-1.8,3.8-1.5c-0.6,1.5-1.5,2.9-2.6,4.1
	c1.3-1,2.4-2.4,3-3.9c0.4,0.9,0.5,2,0.4,3c0,0,1.4-1.3-0.1-3.7c0.3-0.9,0.6-1.8,0.7-2.7c1,1.2,1.7,2.5,2.2,4c0,0,0.6-2.2-2.1-4.7
	l0.2-2.6c0,0,2.5,2.8,3,4.4c0,0,0.3-2.4-3-5l-0.2-2.5c1.2,1.2,2.3,2.5,3.3,3.9c0,0-0.3-2.3-3.3-4.6l-0.3-1.7c0,0,1.7,1.7,2.2,2.2
	s0.6,0.4,0.6,0.4c-0.6-1.4-1.6-2.5-2.9-3.3C957.3,351.9,956.4,348.6,956.6,348.5z"/>
<path class="st3" d="M1005.6,451.1c0,0,2.2,18.6-11,17.2c-1.3,0.3-2.7-0.3-3.5-1.5c0,0,1-0.1,0.5-2c-0.1-0.7-0.2-1.3-0.2-2
	c0-0.9,0.3-1.8,0.9-2.5l0,0c0,0,1.9-5.4,10.3-7.9c0,0,1.8-1.6,2.3-1.6l-1.2,3.2c-1.3-0.5-2.8-0.5-4.2,0c0,0,4.1-0.1,4,0.5
	c0,0.1-0.7,1.7-0.7,1.7s-4.1-1.6-6.9-0.1c0,0,4.9-0.8,6.6,0.7l-1.2,2.3c0,0-4.2-1.9-7.5-0.3c0,0,5.1-0.7,7.2,0.8l-1.5,2.1
	c0,0-4.2-1.8-6.8-0.4c0,0,6-0.2,6.5,0.9c-0.6,0.8-1.3,1.5-2.1,2.2c0,0-3-1.2-4.5-0.3c0,0,4,0.3,4,0.7c-1.3,1-2.8,1.7-4.3,2.2
	c1.7-0.2,3.3-0.8,4.6-1.8c-0.1,1-0.6,2-1.2,2.8c0,0,1.8-0.4,1.8-3.2c0,0,1.9-1.6,2-2c0.2,1.5,0.1,3.1-0.3,4.6c0,0,1.7-1.6,0.7-5.1
	l1.5-2.1c0,0,0.7,3.7,0.3,5.3c0,0,1.5-1.9,0.1-5.9l1.2-2.2c0.5,1.6,0.7,3.3,0.7,5c0,0,1-2.1-0.4-5.7l0.6-1.6c0,0,0.6,2.3,0.7,3
	s0.3,0.7,0.3,0.7c0.2-1.5-0.1-3-0.7-4.3C1004.3,454.3,1005.3,451,1005.6,451.1z"/>
<path class="st3" d="M1048.2,586.8c1.7-1.4,3-3.3,3.6-5.4c0.5-2.2-0.4-4.8-2.5-5.5c-2.3-0.9-4.8,0.7-6.7,2.3s-4,3.5-6.5,3.1
	c2.5-2.3,3.7-5.8,3-9.2c-0.1-0.7-0.4-1.3-0.8-1.9c-1.3-1.4-3.6-0.8-5.2,0.3c-4.9,3.4-6.3,10.1-6.3,16.1c-0.5-2.2-0.1-4.4-0.1-6.6
	s-0.6-4.7-2.5-5.8c-1.2-0.6-2.5-0.9-3.8-0.9c-2.2-0.1-4.7,0.1-6.2,1.8c-1.9,2-1.4,5.3,0.2,7.5s4.1,3.6,6.4,5.1
	c1.8,1.1,3.4,2.6,4.6,4.3c0.1,0.2,0.2,0.5,0.3,0.8h13.8C1042.7,591.1,1045.6,589.2,1048.2,586.8z"/>
<path class="st3" d="M778.8,598c1.7-1.4,3-3.3,3.6-5.4c0.5-2.2-0.5-4.8-2.5-5.5c-2.3-0.9-4.8,0.7-6.7,2.3s-4,3.5-6.5,3.1
	c2.6-2.3,3.7-5.8,3-9.2c-0.1-0.7-0.4-1.3-0.8-1.9c-1.3-1.4-3.6-0.8-5.1,0.3c-4.9,3.4-6.3,10.1-6.3,16.1c-0.5-2.2-0.1-4.4-0.1-6.6
	s-0.6-4.7-2.5-5.8c-1.2-0.6-2.5-0.9-3.8-0.9c-2.2-0.1-4.6,0.1-6.1,1.8c-1.9,2-1.4,5.3,0.2,7.5s4.1,3.6,6.4,5.1
	c1.8,1.1,3.4,2.6,4.5,4.3c0.1,0.2,0.2,0.5,0.3,0.8h13.8C773.4,602.3,776.3,600.3,778.8,598z"/>
<path class="st3" d="M188.1,529.7c0,0,4.3-0.4,5.7,0.8c0,0-4.8,1.3-5.3,2.3c0,0,0.1,0.1,0.5,0s2.9-0.6,3.5,0l0.2,0.3l0.2,0.1
	l0.3,0.2c0.2,0.1,0.3,0.3,0.4,0.5c0.1,0.3,0.3,0,0.3,0s0.3,0.7,0.2,0.8s0.3,0.6,0.3,0.6v2l0.2-0.2c0,1.3,0.4,2.5,0.9,3.6
	c0,0,1.9,4.8,2.6,5.2h0.4c0,0,2.9,3.8,5.6,4.6s2.9,1.7,2.9,1.7l-3.4,3.8c-0.7,0.1-1.3,0.2-1.9,0.3c1.2,0.1,2.4,0.2,3.6,0.1l2.7-3.5
	c0.3,0.1,0.7,0.2,0.9,0.5c0.2,0.1,0.3,0.1,0.5,0.2c0.2,0.2,0.4,0,0.6,0.1s-1.4,2.8-1.4,2.8h-1.8l1.5,0.5c0.5,0.2,1.5-0.4,1.5-0.4
	l1.4-2.6l0.6,0.5v-0.3c0,0,0.6,0.3,0.8,0.3s-0.3-0.4-0.3-0.4c0.3,0,0.6,0,0.8,0c0.2-0.1-0.1-0.6-0.1-0.6v-0.4c0,0-0.9,0-0.8-0.2
	s0.5-0.3,1.1,0s4.2,1.8,5.6,1.3c0.9,0.7,1.9,1.3,2.9,1.8c0.7,0.2,1.5,1.3,1.5,1.3s2.9,3,4.6,2.3c-0.3-0.5-0.6-1.1-0.8-1.7
	c-0.1-0.5-2.2-2.3-2.2-2.3s4.5,1.1,4.5,0.8c0,0,2.3,1.3,2.4,1.3s0-0.8-1.2-1.7l1.7,0.3c-0.1-0.8-0.6-1.5-1.4-1.8
	c-0.4-0.6-0.9-1-1.6-1.4l-7.1-3.9c0,0,0.7-0.3-0.1-1.3c0.2-0.1,0.4-0.1,0.7-0.2c0.4-0.1-3.2-3.1-3.3-3.1c-0.5-0.3-0.8-0.7-1.1-1.2
	c-0.1-0.4-3.4-2.3-3.4-2.3s-2.8-0.2-4.7-4s-6.4-4.2-6.4-4.2s-1.6-8.1-9.3-5C194.2,528,188.9,528.3,188.1,529.7z"/>
<path class="st3" d="M684.7,481.7c-0.5,0.8-2.1,0.3-2.6,1.2c-0.2,0.5-0.2,1,0,1.5c0.1,1.7-1.2,3.2-2.9,3.2c-0.3,0-0.7,0-1-0.1
	c-0.1,1.3-0.6,2.5-1.6,3.5c-1.2,0.8-2.8,0.7-3.9-0.2c-1.1-0.9-1.9-2.1-2.3-3.4c-0.6-1.6-1-3.3-2.4-4.4c-0.5-0.4-1.1-0.6-1.5-1
	c-1-0.9-1.7-2.1-2-3.5c-0.4-1.7-1-3.3-1.6-4.8c-0.7-1.6-1.9-2.9-3.4-3.7c-1.5-0.7-3.1-0.6-4.6-1.2c-1.1-0.4-2.2-1-3.1-1.7
	c-1.2-0.9-2.5-1.7-3.9-2.4c-0.8-0.3-1.6-0.8-2.3-1.3c-1.1-0.6-1.8-1.7-1.8-2.9c-0.2-1.1-0.7-2.2-1.3-3.2c-0.7-1.3-1.3-2.5-0.8-3.8
	s1.8-2.1,2.3-3.3c0.2-0.9,0.3-1.8,0.2-2.7c-0.1-0.9,0.3-1.8,1-2.4c1.2-0.8,2.6,0.2,4,0.6c0.5,0.2,1,0.2,1.5,0.1
	c0.5-0.2,0.9-0.3,1.3-0.6c2.2-0.9,4.7,0.7,5.9,2.7s1.7,4.4,2.8,6.5c0.4,0.8,0.9,1.5,1.6,2.1c0.7,0.5,1.7,0.7,2.5,0.3l1.2,2.7
	c0.6,1.4,1.2,2.8,1.9,4.1c0.8,1.8,1.7,3.7,3.5,4.4c0.8,0.3,1.7,0.4,2.5,0.7c1.8,0.6,3.1,2.2,3.5,4c0.1,0.6,0.2,1.2,0.3,1.8
	c0.7,1.8,3,2.2,4.7,3.2c1,0.6,1.8,1.4,2.4,2.3C684.8,480.5,684.9,481.2,684.7,481.7z"/>
<path class="st4" d="M684.7,481.7c-0.5,0.8-2.1,0.3-2.6,1.2c-0.2,0.5-0.2,1,0,1.5c0.1,1.7-1.2,3.2-2.9,3.2c-0.3,0-0.7,0-1-0.1
	c-0.1,1.3-0.6,2.5-1.6,3.5c-1.2,0.8-2.8,0.7-3.9-0.2c-1.1-0.9-1.9-2.1-2.3-3.4c-0.6-1.6-1-3.3-2.4-4.4c-0.5-0.4-1.1-0.6-1.5-1
	c-1-0.9-1.7-2.1-2-3.5c-0.4-1.7-1-3.3-1.6-4.8c-0.7-1.6-1.9-2.9-3.4-3.7c-1.5-0.7-3.1-0.6-4.6-1.2c-1.1-0.4-2.2-1-3.1-1.7
	c-1.2-0.9-2.5-1.7-3.9-2.4c-0.8-0.3-1.6-0.8-2.3-1.3c-1.1-0.6-1.8-1.7-1.8-2.9c-0.2-1.1-0.7-2.2-1.3-3.2c-0.7-1.3-1.3-2.5-0.8-3.8
	s1.8-2.1,2.3-3.3c0.2-0.9,0.3-1.8,0.2-2.7c-0.1-0.9,0.3-1.8,1-2.4c1.2-0.8,2.6,0.2,4,0.6c0.5,0.2,1,0.2,1.5,0.1
	c0.5-0.2,0.9-0.3,1.3-0.6c2.2-0.9,4.7,0.7,5.9,2.7s1.7,4.4,2.8,6.5c0.4,0.8,0.9,1.5,1.6,2.1c0.7,0.5,1.7,0.7,2.5,0.3l1.2,2.7
	c0.6,1.4,1.2,2.8,1.9,4.1c0.8,1.8,1.7,3.7,3.5,4.4c0.8,0.3,1.7,0.4,2.5,0.7c1.8,0.6,3.1,2.2,3.5,4c0.1,0.6,0.2,1.2,0.3,1.8
	c0.7,1.8,3,2.2,4.7,3.2c1,0.6,1.8,1.4,2.4,2.3C684.8,480.5,684.9,481.2,684.7,481.7z"/>
<path class="st8" d="M647.1,461.8c0,0,0.9,1.8-1.7,1.8s1.7,11.7,1.7,11.7l4.4,5.6l5.4-2.9l0.3-8.1l0.4-4.9c0,0-5.1-1.7-4.2-3.8
	S647.1,461.8,647.1,461.8z"/>
<path class="st3" d="M662.9,509.2c0,0,3.2,3.2,7-1l-2.9-3h-3.6L662.9,509.2z"/>
<path class="st3" d="M668.6,505.7c0.6,1.6,1.3,3,2.2,4.4c0.9,1,2.4,8.1,0.5,7.3s-5.7-6.8-5.9-7.8c-0.2-1.3-0.3-2.6-0.3-3.9H668.6z"
	/>
<polygon class="st3" points="640.6,523 657.9,523.7 655.9,516.4 647.2,516.2 "/>
<path class="st3" d="M646.3,535.1c-0.4,0.8-0.3,3.4-0.1,5.3c0.1,1.2,0.3,2.2,0.3,2.2s-6.5,2-7.4,0.3c-0.3-0.7-0.4-1.4-0.4-2.1
	c0-2.2,0.1-4.4,0.4-6.5c0,0-0.3-5.9-0.4-6.5c0-0.2-0.1-1-0.2-1.8c-0.1-1.2-0.2-2.5-0.2-2.5l8.8-4.7c0,0,0,0.9,0,2.2
	C646.9,525.3,646.8,534.2,646.3,535.1z"/>
<path class="st3" d="M646.7,576.3L646.7,576.3c-0.9,0-5.3,0-5.3,0l-0.2-0.2c-0.8-1-1-2.3-0.6-3.5c0.6-2,0.9-4.1,0.9-6.2
	c0.2-0.5,0.2-1.1,0-1.6c-0.2-0.5-0.2-1-0.1-1.5c0-0.3-0.1-0.7-0.3-1c-0.1-0.5-0.1-1,0-1.5c0-1-0.2-1.9-0.5-2.8
	c-0.4-1.2-3.3-14.9-2.6-16.6c0,0,6.2-1.1,8.6-0.3l-0.3,10.7c0,0-1.1,3.2-0.2,4s0,3.5,0,3.5s-0.1,0.5,0.7,2.1s0,2.4,0,2.4v3.2
	c-0.3,1.3-0.3,2.6,0.1,3.9C647.8,572.7,647,576.3,646.7,576.3z"/>
<path class="st3" d="M658.9,535.1c-0.4,0.8-0.3,3.4-0.1,5.3c0.1,1.2,0.3,2.2,0.3,2.2s-6.5,2-7.4,0.3c-0.3-0.7-0.4-1.4-0.4-2.1
	c0-2.2,0.1-4.4,0.4-6.5c0,0-0.3-5.9-0.4-6.5c-0.1-0.3-0.2-3.3-0.3-6c-0.1-2.3-0.2-4.3-0.2-4.3l8.8,1.4c0,0,0,3.9-0.1,7.9
	S659.2,534.5,658.9,535.1z"/>
<path class="st3" d="M659.3,576.3L659.3,576.3c-0.9,0-5.3,0-5.3,0l-0.2-0.2c-0.8-1-1-2.3-0.6-3.5c0.6-2,0.9-4.1,0.9-6.2
	c0.2-0.5,0.2-1.1,0-1.6c-0.2-0.5-0.2-1-0.1-1.5c0-0.3-0.1-0.7-0.3-1c-0.1-0.5-0.1-1,0-1.5c0-1-0.2-1.9-0.5-2.8
	c-0.4-1.2-3.3-14.9-2.6-16.6c0,0,6.2-1.1,8.6-0.3l-0.3,10.7c0,0-1.1,3.2-0.2,4s0,3.5,0,3.5s-0.1,0.5,0.7,2.1s0,2.4,0,2.4v3.2
	c-0.3,1.3-0.3,2.6,0.1,3.9C660.4,572.7,659.6,576.3,659.3,576.3z"/>
<circle class="st4" cx="650.4" cy="457.5" r="6.3"/>
<circle class="st8" cx="650.6" cy="457.3" r="6.3"/>
<path class="st3" d="M658,484.8c-0.2,1.7-0.3,3.5-0.1,5.2c4.1,3.3,3.3,10.4,3.3,10.4s3.1,14.2,2.4,15.5s1.5,9.2,1.5,9.2
	c-1.9,0.4-3.7,0.6-5.6,0.7c-0.7,0-1.3,0-2-0.1c-0.9,0-1.8-0.3-2.4-1c-1.3-2.2-6.6-5.4-6.6-5.4s-3.4,2-6.6,3.9c-1,0.6-2,1.2-2.9,1.7
	c-0.7,0.4-1.5,0.6-2.2,0.6c-3.8,0.3-8.8-2.1-8-2.9c1-1,5.8-19,5.8-19s2.5-11.1,4.6-12.7c0.4-0.3,0.7-0.7,0.8-1.1
	c0.7-2-0.5-5.3-0.5-5.3s-6.9-8.5-6.6-9c0.2-1,0.3-2.1,0.3-3.1c0,0,0.8-4.2,1.3-6.2s4-2.5,5-2.3s3.6,0,4.5-0.8s2.6,0.3,2.6,0.3
	l3.8,1.9l3.7-2.2c0,0,3.7,0.2,4,0.7s5.1,1.4,5.1,1.4c2.5,1.7,2.4,9.5,2.4,9.5s-5.9,5.1-7.1,7.8C658.3,483.3,658.1,484.1,658,484.8z"
	/>
<path class="st3" d="M664.3,473.7l1.3,1.1l1.4,12.4l1.4,12.5c0,0,0.5,1.3,1,1.1s0.4,7.4,0.4,7.4s-5.1-3.2-7,1l-1.4-10.1
	c0,0-1.8-10.3-1.8-11.1s-0.9-9.5-0.9-9.5L664.3,473.7z"/>
<path class="st3" d="M633.9,474.3l-1,1.2c0,0,0.1,5.2-0.7,6.4s2.1,8.5,3.2,8.1s3.5-11.8,3.5-12S633.9,474.3,633.9,474.3z"/>
<path class="st3" d="M633.8,481.6c0,0-3.1,3.2-2.9,4.7s3.2,6.3,7.5,3.7C638.4,490,642.3,482.5,633.8,481.6z"/>
<path class="st4" d="M646.6,576.3c-0.8,0-5.2,0-5.2,0l-0.2-0.2C642.3,575.7,644.8,575.1,646.6,576.3z"/>
<path class="st4" d="M659.2,576.3c-0.8,0-5.2,0-5.2,0l-0.2-0.2C655,575.7,657.4,575.1,659.2,576.3z"/>
<path class="st3" d="M645.9,453.4c0.2,0,0.4,0,0.6,0.1c0.3,0.1,0.5,0.3,0.8,0.6c0.7,0.6,1.7,0.8,2.5,0.5c0.3-0.1,0.7-0.2,1-0.3
	c0.5,0,1,0.3,1.2,0.8c0.3,0.4,0.4,0.9,0.6,1.4c0.2,0.5,0.6,0.8,1.1,1c0.2,0,0.5,0.1,0.7,0.2c0.1,0.1,0.2,0.3,0.3,0.4
	c0.4,0.9,0.8,2,1.6,2.4c0.3,0.1,0.7,0.2,1,0.2c0.4,0,0.7,0,1.1-0.2c0.3-0.2,0.6-0.5,0.8-0.8c0.5-1,0.7-2.1,0.5-3.1
	c-0.2-1.3-0.6-2.6-1.4-3.8c-1.6-2.3-4.4-3.6-7.2-3.3c-0.5,0.1-1,0.2-1.4,0.3c-1.7,0.4-3.3,1.3-4.4,2.7c-0.2,0.4-0.5,0.7-0.8,1
	C645,453.4,645.4,453.4,645.9,453.4z"/>
<path class="st4" d="M645.9,453.4c0.2,0,0.4,0,0.6,0.1c0.3,0.1,0.5,0.3,0.8,0.6c0.7,0.6,1.7,0.8,2.5,0.5c0.3-0.1,0.7-0.2,1-0.3
	c0.5,0,1,0.3,1.2,0.8c0.3,0.4,0.4,0.9,0.6,1.4c0.2,0.5,0.6,0.8,1.1,1c0.2,0,0.5,0.1,0.7,0.2c0.1,0.1,0.2,0.3,0.3,0.4
	c0.4,0.9,0.8,2,1.6,2.4c0.3,0.1,0.7,0.2,1,0.2c0.4,0,0.7,0,1.1-0.2c0.3-0.2,0.6-0.5,0.8-0.8c0.5-1,0.7-2.1,0.5-3.1
	c-0.2-1.3-0.6-2.6-1.4-3.8c-1.6-2.3-4.4-3.6-7.2-3.3c-0.5,0.1-1,0.2-1.4,0.3c-1.7,0.4-3.3,1.3-4.4,2.7c-0.2,0.4-0.5,0.7-0.8,1
	C645,453.4,645.4,453.4,645.9,453.4z"/>
<path class="st4" d="M639.1,468.3c0,0,0.3,2.5-0.8,3.1S639.1,468.3,639.1,468.3z"/>
<path class="st4" d="M644.7,465.4c0,0-3.8,0.2-3.8,0.8S644.7,465.4,644.7,465.4z"/>
<path class="st9" d="M665.7,459.5l-14,7.6l-13.2,7.2l-3.9-3.2l7.8-13.7l6.5-11.6c0.5,0.2,1,0.2,1.5,0.1c0.5-0.2,0.9-0.3,1.3-0.6
	c2.2-0.9,4.7,0.7,5.9,2.7s1.7,4.4,2.7,6.5c0.4,0.8,0.9,1.5,1.6,2.1c0.7,0.5,1.7,0.7,2.5,0.3L665.7,459.5z"/>
<path class="st3" d="M635,470.9h2.6c0.6,0,1.1,0.5,1.1,1.1v7.4c0,0.6-0.5,1.1-1.1,1.1H635c-0.6,0-1.1-0.5-1.1-1.1V472
	C634,471.4,634.5,470.9,635,470.9z"/>
<path class="st10" d="M635,470.9h2.6c0.6,0,1.1,0.5,1.1,1.1v7.4c0,0.6-0.5,1.1-1.1,1.1H635c-0.6,0-1.1-0.5-1.1-1.1V472
	C634,471.4,634.5,470.9,635,470.9z"/>
<circle class="st3" cx="636.2" cy="473.7" r="0.7"/>
<path class="st3" d="M634,485.7c0,0,0.8-3.7-0.3-4.9s-0.7-7.3,0.9-7.2s4,5,3.6,6s-1.9,6.3-1.9,6.3L634,485.7z"/>
<circle class="st11" cx="102.8" cy="127.8" r="1.1"/>
<circle class="st11" cx="222.4" cy="102.9" r="1.1"/>
<circle class="st11" cx="763.2" cy="104.4" r="1.1"/>
<circle class="st11" cx="102.8" cy="177.3" r="1.1"/>
<circle class="st11" cx="799.1" cy="143.3" r="1.1"/>
<circle class="st11" cx="808.3" cy="210.4" r="1.1"/>
<circle class="st11" cx="1031.4" cy="132.4" r="1.1"/>
<circle class="st11" cx="357.9" cy="81.4" r="1.1"/>
<circle class="st11" cx="889.3" cy="92.9" r="1.1"/>
<circle class="st11" cx="782.6" cy="280.4" r="1.1"/>
<circle class="st11" cx="221.3" cy="326.1" r="1.1"/>
<circle class="st11" cx="798" cy="291.8" r="1.1"/>
<circle class="st11" cx="1069" cy="209.2" r="1.1"/>
<circle class="st11" cx="317.4" cy="166.3" r="1.1"/>
<path class="st3" d="M1119.4,663.5c1.4-8.3-16.3-50-16.3-50l-0.2,0.2c-3.9-12.2-11.3-24.3-17.3-36.1c-3.2,0.6-6.4,1.3-9.6,2
	c-74.5,17-147.3,52.5-223.4,45.3c-51.5-4.9-99.1-29.1-149.3-41.8C540.8,542,370,624.3,203.5,604.2c-43-5.2-85.1-17.2-128.3-20.2
	c-15.4-1.1-30.9-0.7-46.2,1.2c0,0,20.4,35.2,66.4,78.5c5.2,4.9,11,9,17.2,12.3c87.1,46.4,197.7,53.3,197.7,53.3h395.1
	c0,0,202.3,0,282.8,0c0,0-10.7,5.1,63.7-7.5C1126.2,709.2,1121.5,668.9,1119.4,663.5z M413.2,722.5c0.6,0,1.3,0.1,1.9,0.1l-1,0
	L413.2,722.5z"/>
</svg>
